<svg width="64" height="65" viewBox="0 0 64 65" fill="none" xmlns="http://www.w3.org/2000/svg">
<rect y="0.5" width="64" height="64" rx="16" fill="#ECF5FF"/>
<path d="M38.4699 37.33L38.8599 40.49C38.9599 41.32 38.0699 41.9 37.3599 41.47L33.8999 39.41C33.6599 39.27 33.5999 38.97 33.7299 38.73C34.2299 37.81 34.4999 36.77 34.4999 35.73C34.4999 32.07 31.3599 29.09 27.4999 29.09C26.7099 29.09 25.9399 29.21 25.2199 29.45C24.8499 29.57 24.4899 29.23 24.5799 28.85C25.4899 25.21 28.9899 22.5 33.1699 22.5C38.0499 22.5 41.9999 26.19 41.9999 30.74C41.9999 33.44 40.6099 35.83 38.4699 37.33Z" fill="#1572D3"/>
<path d="M33 35.73C33 36.92 32.56 38.02 31.82 38.89C30.83 40.09 29.26 40.86 27.5 40.86L24.89 42.41C24.45 42.68 23.89 42.31 23.95 41.8L24.2 39.83C22.86 38.9 22 37.41 22 35.73C22 33.97 22.94 32.42 24.38 31.5C25.27 30.92 26.34 30.59 27.5 30.59C30.54 30.59 33 32.89 33 35.73Z" fill="#1572D3"/>
</svg>
