<svg width="64" height="65" viewBox="0 0 64 65" fill="none" xmlns="http://www.w3.org/2000/svg">
<rect y="0.5" width="64" height="64" rx="16" fill="#ECF5FF"/>
<path d="M31.94 22.71L29.53 28.32H27.12C26.72 28.32 26.33 28.35 25.95 28.43L26.95 26.03L26.99 25.94L27.05 25.78C27.08 25.71 27.1 25.65 27.13 25.6C28.29 22.91 29.59 22.07 31.94 22.71Z" fill="#1572D3"/>
<path d="M38.7301 28.59L38.7101 28.58C38.1101 28.41 37.5001 28.32 36.8801 28.32H30.6201L32.8701 23.09L32.9001 23.02C33.0401 23.07 33.1901 23.14 33.3401 23.19L35.5501 24.12C36.7801 24.63 37.6401 25.16 38.1701 25.8C38.2601 25.92 38.3401 26.03 38.4201 26.16C38.5101 26.3 38.5801 26.44 38.6201 26.59C38.6601 26.68 38.6901 26.76 38.7101 26.85C38.8601 27.36 38.8701 27.94 38.7301 28.59Z" fill="#1572D3"/>
<path d="M32.52 38.16H32.77C33.07 38.16 33.32 37.89 33.32 37.56C33.32 37.14 33.2 37.08 32.94 36.98L32.52 36.83V38.16Z" fill="#1572D3"/>
<path d="M38.29 30.02C37.84 29.89 37.37 29.82 36.88 29.82H27.12C26.44 29.82 25.8 29.95 25.2 30.21C23.46 30.96 22.24 32.69 22.24 34.7V36.65C22.24 36.89 22.26 37.12 22.29 37.36C22.51 40.54 24.21 42.24 27.39 42.45C27.62 42.48 27.85 42.5 28.1 42.5H35.9C39.6 42.5 41.55 40.74 41.74 37.24C41.75 37.05 41.76 36.85 41.76 36.65V34.7C41.76 32.49 40.29 30.63 38.29 30.02ZM33.28 36C33.74 36.16 34.36 36.5 34.36 37.56C34.36 38.47 33.65 39.2 32.77 39.2H32.52V39.42C32.52 39.71 32.29 39.94 32 39.94C31.71 39.94 31.48 39.71 31.48 39.42V39.2H31.39C30.43 39.2 29.64 38.39 29.64 37.39C29.64 37.1 29.87 36.87 30.16 36.87C30.45 36.87 30.68 37.1 30.68 37.39C30.68 37.81 31 38.16 31.39 38.16H31.48V36.47L30.72 36.2C30.26 36.04 29.64 35.7 29.64 34.64C29.64 33.73 30.35 33 31.23 33H31.48V32.78C31.48 32.49 31.71 32.26 32 32.26C32.29 32.26 32.52 32.49 32.52 32.78V33H32.61C33.57 33 34.36 33.81 34.36 34.81C34.36 35.1 34.13 35.33 33.84 35.33C33.55 35.33 33.32 35.1 33.32 34.81C33.32 34.39 33 34.04 32.61 34.04H32.52V35.73L33.28 36Z" fill="#1572D3"/>
<path d="M30.6799 34.64C30.6799 35.06 30.7999 35.12 31.0599 35.22L31.4799 35.37V34.04H31.2299C30.9199 34.04 30.6799 34.31 30.6799 34.64Z" fill="#1572D3"/>
</svg>
