<svg width="64" height="65" viewBox="0 0 64 65" fill="none" xmlns="http://www.w3.org/2000/svg">
<rect y="0.5" width="64" height="64" rx="16" fill="#ECF5FF"/>
<path d="M38 22.5H26C24.34 22.5 23 23.83 23 25.47V36.38C23 38.02 24.34 39.35 26 39.35H26.76C27.56 39.35 28.32 39.66 28.88 40.22L30.59 41.91C31.37 42.68 32.64 42.68 33.42 41.91L35.13 40.22C35.69 39.66 36.46 39.35 37.25 39.35H38C39.66 39.35 41 38.02 41 36.38V25.47C41 23.83 39.66 22.5 38 22.5ZM30.38 33.51C30.79 33.51 31.13 33.85 31.13 34.26C31.13 34.67 30.79 35.01 30.38 35.01H27.7C27.26 35.01 26.85 34.8 26.59 34.44C26.34 34.1 26.28 33.68 26.4 33.28C26.75 32.21 27.61 31.63 28.37 31.11C29.17 30.57 29.62 30.23 29.62 29.65C29.62 29.13 29.2 28.71 28.68 28.71C28.16 28.71 27.75 29.14 27.75 29.66C27.75 30.07 27.41 30.41 27 30.41C26.59 30.41 26.25 30.07 26.25 29.66C26.25 28.32 27.34 27.22 28.69 27.22C30.04 27.22 31.13 28.31 31.13 29.66C31.13 31.07 30.07 31.79 29.22 32.37C28.69 32.73 28.19 33.07 27.94 33.52H30.38V33.51ZM37 33.58H36.79V34.27C36.79 34.68 36.45 35.02 36.04 35.02C35.63 35.02 35.29 34.68 35.29 34.27V33.58H33.33C33.33 33.58 33.33 33.58 33.32 33.58C32.83 33.58 32.38 33.32 32.13 32.9C31.88 32.47 31.88 31.94 32.13 31.52C32.81 30.35 33.6 29.02 34.32 27.86C34.64 27.35 35.25 27.12 35.82 27.28C36.39 27.45 36.79 27.97 36.78 28.57V32.09H37C37.41 32.09 37.75 32.43 37.75 32.84C37.75 33.25 37.41 33.58 37 33.58Z" fill="#1572D3"/>
<path d="M35.29 32.08V29.14C34.7 30.1 34.09 31.13 33.54 32.07H35.29V32.08Z" fill="#1572D3"/>
</svg>
