<svg width="112" height="112" viewBox="0 0 112 112" fill="none" xmlns="http://www.w3.org/2000/svg">
<rect width="112" height="112" rx="16" fill="#ECF5FF"/>
<path d="M73.24 49.4C71.16 40.14 63.08 36 56 36C56 36 56 36 55.98 36C48.92 36 40.86 40.14 38.76 49.38C36.4 59.7 42.72 68.44 48.44 73.96C50.56 76 53.28 77.02 56 77.02C58.72 77.02 61.44 76 63.54 73.96C69.26 68.44 75.58 59.72 73.24 49.4ZM62.56 51.06L54.56 59.06C54.26 59.36 53.88 59.5 53.5 59.5C53.12 59.5 52.74 59.36 52.44 59.06L49.44 56.06C48.86 55.48 48.86 54.52 49.44 53.94C50.02 53.36 50.98 53.36 51.56 53.94L53.5 55.88L60.44 48.94C61.02 48.36 61.98 48.36 62.56 48.94C63.14 49.52 63.14 50.48 62.56 51.06Z" fill="#1572D3"/>
</svg>
