<svg width="112" height="112" viewBox="0 0 112 112" fill="none" xmlns="http://www.w3.org/2000/svg">
<rect width="112" height="112" rx="16" fill="#ECF5FF"/>
<path d="M75.5 48.0002C75.5 48.8202 74.82 49.5002 74 49.5002H38C37.18 49.5002 36.5 48.8202 36.5 48.0002C36.5 47.1802 37.18 46.5002 38 46.5002H40.04L40.8 42.8802C41.52 39.3802 43.02 36.1602 48.98 36.1602H63.02C68.98 36.1602 70.48 39.3802 71.2 42.8802L71.96 46.5002H74C74.82 46.5002 75.5 47.1802 75.5 48.0002Z" fill="#1572D3"/>
<path d="M76.3592 59.32C76.0592 56.02 75.1792 52.5 68.7592 52.5H43.2392C36.8192 52.5 35.9592 56.02 35.6392 59.32L34.5192 71.5C34.3792 73.02 34.8792 74.54 35.9192 75.68C36.9792 76.84 38.4792 77.5 40.0792 77.5H43.8392C47.0792 77.5 47.6992 75.64 48.0992 74.42L48.4992 73.22C48.9592 71.84 49.0792 71.5 50.8792 71.5H61.1192C62.9192 71.5 62.9792 71.7 63.4992 73.22L63.8992 74.42C64.2992 75.64 64.9192 77.5 68.1592 77.5H71.9192C73.4992 77.5 75.0192 76.84 76.0792 75.68C77.1192 74.54 77.6192 73.02 77.4792 71.5L76.3592 59.32ZM49.9992 63.5H43.9992C43.1792 63.5 42.4992 62.82 42.4992 62C42.4992 61.18 43.1792 60.5 43.9992 60.5H49.9992C50.8192 60.5 51.4992 61.18 51.4992 62C51.4992 62.82 50.8192 63.5 49.9992 63.5ZM67.9992 63.5H61.9992C61.1792 63.5 60.4992 62.82 60.4992 62C60.4992 61.18 61.1792 60.5 61.9992 60.5H67.9992C68.8192 60.5 69.4992 61.18 69.4992 62C69.4992 62.82 68.8192 63.5 67.9992 63.5Z" fill="#1572D3"/>
</svg>
