<svg width="112" height="112" viewBox="0 0 112 112" fill="none" xmlns="http://www.w3.org/2000/svg">
<rect width="112" height="112" rx="16" fill="#ECF5FF"/>
<path d="M65.5 39.12V36C65.5 35.18 64.82 34.5 64 34.5C63.18 34.5 62.5 35.18 62.5 36V39H49.5V36C49.5 35.18 48.82 34.5 48 34.5C47.18 34.5 46.5 35.18 46.5 36V39.12C41.1 39.62 38.48 42.84 38.08 47.62C38.04 48.2 38.52 48.68 39.08 48.68H72.92C73.5 48.68 73.98 48.18 73.92 47.62C73.52 42.84 70.9 39.62 65.5 39.12Z" fill="#1572D3"/>
<path d="M72 51.68H40C38.9 51.68 38 52.58 38 53.68V66C38 72 41 76 48 76H64C71 76 74 72 74 66V53.68C74 52.58 73.1 51.68 72 51.68ZM50.42 68.42C50.32 68.5 50.22 68.6 50.12 68.66C50 68.74 49.88 68.8 49.76 68.84C49.64 68.9 49.52 68.94 49.4 68.96C49.26 68.98 49.14 69 49 69C48.74 69 48.48 68.94 48.24 68.84C47.98 68.74 47.78 68.6 47.58 68.42C47.22 68.04 47 67.52 47 67C47 66.48 47.22 65.96 47.58 65.58C47.78 65.4 47.98 65.26 48.24 65.16C48.6 65 49 64.96 49.4 65.04C49.52 65.06 49.64 65.1 49.76 65.16C49.88 65.2 50 65.26 50.12 65.34C50.22 65.42 50.32 65.5 50.42 65.58C50.78 65.96 51 66.48 51 67C51 67.52 50.78 68.04 50.42 68.42ZM50.42 61.42C50.04 61.78 49.52 62 49 62C48.48 62 47.96 61.78 47.58 61.42C47.22 61.04 47 60.52 47 60C47 59.48 47.22 58.96 47.58 58.58C48.14 58.02 49.02 57.84 49.76 58.16C50.02 58.26 50.24 58.4 50.42 58.58C50.78 58.96 51 59.48 51 60C51 60.52 50.78 61.04 50.42 61.42ZM57.42 68.42C57.04 68.78 56.52 69 56 69C55.48 69 54.96 68.78 54.58 68.42C54.22 68.04 54 67.52 54 67C54 66.48 54.22 65.96 54.58 65.58C55.32 64.84 56.68 64.84 57.42 65.58C57.78 65.96 58 66.48 58 67C58 67.52 57.78 68.04 57.42 68.42ZM57.42 61.42C57.32 61.5 57.22 61.58 57.12 61.66C57 61.74 56.88 61.8 56.76 61.84C56.64 61.9 56.52 61.94 56.4 61.96C56.26 61.98 56.14 62 56 62C55.48 62 54.96 61.78 54.58 61.42C54.22 61.04 54 60.52 54 60C54 59.48 54.22 58.96 54.58 58.58C54.76 58.4 54.98 58.26 55.24 58.16C55.98 57.84 56.86 58.02 57.42 58.58C57.78 58.96 58 59.48 58 60C58 60.52 57.78 61.04 57.42 61.42ZM64.42 68.42C64.04 68.78 63.52 69 63 69C62.48 69 61.96 68.78 61.58 68.42C61.22 68.04 61 67.52 61 67C61 66.48 61.22 65.96 61.58 65.58C62.32 64.84 63.68 64.84 64.42 65.58C64.78 65.96 65 66.48 65 67C65 67.52 64.78 68.04 64.42 68.42ZM64.42 61.42C64.32 61.5 64.22 61.58 64.12 61.66C64 61.74 63.88 61.8 63.76 61.84C63.64 61.9 63.52 61.94 63.4 61.96C63.26 61.98 63.12 62 63 62C62.48 62 61.96 61.78 61.58 61.42C61.22 61.04 61 60.52 61 60C61 59.48 61.22 58.96 61.58 58.58C61.78 58.4 61.98 58.26 62.24 58.16C62.6 58 63 57.96 63.4 58.04C63.52 58.06 63.64 58.1 63.76 58.16C63.88 58.2 64 58.26 64.12 58.34C64.22 58.42 64.32 58.5 64.42 58.58C64.78 58.96 65 59.48 65 60C65 60.52 64.78 61.04 64.42 61.42Z" fill="#1572D3"/>
</svg>
