<svg width="64" height="65" viewBox="0 0 64 65" fill="none" xmlns="http://www.w3.org/2000/svg">
<rect y="0.5" width="64" height="64" rx="16" fill="#ECF5FF"/>
<path d="M31.9999 34.5C26.9899 34.5 22.9099 37.86 22.9099 42C22.9099 42.28 23.1299 42.5 23.4099 42.5H40.5899C40.8699 42.5 41.0899 42.28 41.0899 42C41.0899 37.86 37.0099 34.5 31.9999 34.5Z" fill="#1572D3"/>
<path d="M32 22.5C30.82 22.5 29.74 22.91 28.88 23.6C27.73 24.51 27 25.92 27 27.5C27 28.44 27.26 29.32 27.73 30.07C28.59 31.52 30.17 32.5 32 32.5C33.26 32.5 34.41 32.04 35.29 31.25C35.68 30.92 36.02 30.52 36.28 30.07C36.74 29.32 37 28.44 37 27.5C37 24.74 34.76 22.5 32 22.5ZM34.59 26.96L31.92 29.42C31.74 29.59 31.51 29.67 31.28 29.67C31.04 29.67 30.8 29.58 30.62 29.4L29.39 28.16C29.02 27.79 29.02 27.2 29.39 26.83C29.76 26.46 30.35 26.46 30.72 26.83L31.31 27.42L33.32 25.57C33.7 25.22 34.29 25.24 34.64 25.62C34.99 26.01 34.97 26.61 34.59 26.96Z" fill="#1572D3"/>
</svg>
