<svg width="225" height="67" viewBox="0 0 225 67" fill="none" xmlns="http://www.w3.org/2000/svg">
<rect width="224.133" height="66.5394" transform="translate(0.0935059 0.000579834)" fill="white"/>
<g clip-path="url(#clip0_1_1025)">
<path d="M3.8947 27.128L11.6136 40.9353L20.5365 40.9586L28.1138 27.128H31.9142V24.6133H20.4893V27.128H23.794L18.2704 37.1866L12.6759 27.128H16.6888V24.6133H0.0942383V27.128H3.8947Z" fill="#5F5F5F"/>
<path d="M102.163 27.128V24.6366H117.459V27.128H113.658V38.4207H117.199C120.48 38.4207 122.628 36.2786 122.628 33.3914H125.154V40.9586H102.186V38.3974H106.034V27.1047H102.163V27.128Z" fill="#5F5F5F"/>
<path d="M65.0787 24.2641C57.407 24.2641 53.3232 28.0361 53.3232 32.786C53.3232 37.5825 57.2417 41.4243 65.1259 41.4243C73.0101 41.4243 76.8814 37.5825 76.8814 32.786C76.8814 28.0593 72.774 24.2641 65.0787 24.2641ZM65.0079 38.8398C62.1989 38.7932 60.9714 35.743 61.0186 32.6928C61.0658 29.5495 62.6001 26.802 65.2203 26.8486C67.8405 26.8951 69.2332 29.6892 69.186 32.8325C69.1388 35.7896 67.8877 38.8864 65.0079 38.8398Z" fill="#5F5F5F"/>
<path d="M151.215 27.128L158.934 40.9353L167.857 40.9586L175.434 27.128H179.234V24.6133H167.809V27.128H171.114L165.59 37.1866L159.996 27.128H164.009V24.6133H147.414V27.128H151.215Z" fill="#5F5F5F"/>
<path d="M212.4 24.2641C204.728 24.2641 200.644 28.0361 200.644 32.786C200.644 37.5825 204.563 41.4243 212.447 41.4243C220.331 41.4243 224.202 37.5825 224.202 32.786C224.202 28.0593 220.095 24.2641 212.4 24.2641ZM212.329 38.8398C209.52 38.7932 208.292 35.743 208.34 32.6928C208.387 29.5495 209.921 26.802 212.541 26.8486C215.162 26.8951 216.554 29.6892 216.507 32.8325C216.46 35.7896 215.209 38.8864 212.329 38.8398Z" fill="#5F5F5F"/>
</g>
<defs>
<clipPath id="clip0_1_1025">
<rect width="224.133" height="17.1835" fill="white" transform="translate(0.09375 24.2408)"/>
</clipPath>
</defs>
</svg>
