<svg width="144" height="67" viewBox="0 0 144 67" fill="none" xmlns="http://www.w3.org/2000/svg">
<rect width="143.585" height="66.5394" transform="translate(0.226318 0.000579834)" fill="white"/>
<path d="M118.693 58.1219C113 58.1219 107.559 56.2517 103.163 52.7631C98.767 56.2157 93.326 58.1219 87.6328 58.1219C81.9396 58.1219 76.4987 56.2517 72.1027 52.7631C67.7067 56.2157 62.2657 58.1219 56.5725 58.1219C50.8793 58.1219 45.4384 56.2517 41.0424 52.7631C36.6464 56.2157 31.2054 58.1219 25.5122 58.1219C18.8822 58.1219 12.6485 55.6043 7.92823 51.0009C3.13587 46.3974 0.469438 40.2474 0.36134 33.7019C0.253241 27.1203 2.70347 20.8984 7.27964 16.1151C11.8198 11.3678 17.9814 8.63447 24.6114 8.41869H24.7195H26.305C31.7099 8.59851 36.8266 10.4687 41.0064 13.7415C45.1501 10.4687 50.2668 8.59851 55.6717 8.41869L55.7798 11.2239V8.41869H57.3653C62.7702 8.59851 67.8868 10.4687 72.0666 13.7415C76.2465 10.4687 81.3271 8.59851 86.768 8.41869H86.8761H88.4616C93.8665 8.59851 98.9832 10.4687 103.163 13.7415C107.307 10.4687 112.423 8.59851 117.864 8.41869L117.972 11.2239V8.41869H119.558C126.152 8.63447 132.314 11.3678 136.89 16.1151C141.466 20.8625 143.916 27.1203 143.808 33.6659C143.7 40.2474 141.033 46.3974 136.313 51.0009C131.521 55.6043 125.287 58.1219 118.693 58.1219ZM107.271 48.6991C110.478 51.0368 114.441 52.4394 118.693 52.4394C129.179 52.4394 137.863 43.9878 138.007 33.6299C138.187 23.2721 129.827 14.5686 119.378 14.173H118.008C114.009 14.3169 110.333 15.6836 107.307 17.8774C110.91 22.373 112.784 27.9115 112.712 33.7019C112.568 39.2045 110.694 44.4193 107.271 48.6991ZM76.2104 48.6991C79.4173 51.0368 83.381 52.4394 87.6328 52.4394C91.8847 52.4394 95.8123 51.0368 99.0192 48.6991C95.6321 44.4553 93.7224 39.2045 93.6143 33.7019C93.5062 27.9115 95.4159 22.373 99.0192 17.8774C95.9924 15.6836 92.3171 14.3169 88.3175 14.173H86.9482C82.9486 14.3169 79.2732 15.6836 76.2465 17.8774C79.8497 22.373 81.7234 27.9115 81.6514 33.7019C81.5072 39.2045 79.5975 44.4193 76.2104 48.6991ZM45.1141 48.6991C48.321 51.0368 52.2846 52.4394 56.5365 52.4394C60.7884 52.4394 64.716 51.0368 67.9229 48.6991C64.5358 44.4553 62.626 39.2045 62.5179 33.7019C62.4099 27.9115 64.3196 22.373 67.9229 17.8774C64.8961 15.6836 61.2208 14.3169 57.2211 14.173H55.8519C51.8522 14.3169 48.1769 15.6836 45.1501 17.8774C48.7534 22.373 50.6271 27.9115 50.5551 33.7019C50.4109 39.2045 48.5012 44.4193 45.1141 48.6991ZM24.7556 14.1371C14.306 14.4967 5.94643 23.2361 6.12659 33.594C6.30675 43.9518 14.9546 52.4035 25.4402 52.4035C29.6921 52.4035 33.6196 51.0009 36.8265 48.6632C33.4395 44.4193 31.5297 39.1685 31.4216 33.6659C31.3135 27.8756 33.2233 22.337 36.8265 17.8414C33.7998 15.6476 30.1244 14.2809 26.1248 14.1371H24.7556ZM72.0666 21.9414C69.6164 25.2142 68.2111 29.2422 68.2832 33.594C68.3553 37.6939 69.7605 41.5062 72.0666 44.5992C74.3727 41.5062 75.778 37.6939 75.8501 33.594C75.9222 29.2422 74.4808 25.2142 72.0666 21.9414ZM40.9703 21.9414C38.5201 25.2142 37.1148 29.2422 37.1869 33.594C37.2589 37.6939 38.6642 41.5062 40.9703 44.5992C43.2764 41.5062 44.6817 37.6939 44.7538 33.594C44.8258 29.2422 43.4206 25.2142 40.9703 21.9414ZM103.127 21.9414C100.677 25.2142 99.2714 29.2422 99.3435 33.594C99.4156 37.6939 100.821 41.5062 103.127 44.5992C105.433 41.5062 106.838 37.6939 106.91 33.594C107.018 29.2422 105.577 25.2142 103.127 21.9414Z" fill="#5F5F5F"/>
</svg>
